<svg xmlns="http://www.w3.org/2000/svg" xml:space="preserve" width="389" height="389">
  <circle r="40"
    style="stroke:#000;stroke-width:0;stroke-dasharray:none;stroke-linecap:butt;stroke-dashoffset:0;stroke-linejoin:miter;stroke-miterlimit:4;fill:#fff;fill-rule:nonzero;opacity:1"
    transform="matrix(1.25 0 0 1.25 191 190)" vector-effect="non-scaling-stroke" />
  <path d="M9.113 65.022C11.683 45.575 28.302 30.978 48 30.978c19.696 0 36.316 14.598 38.887 34.045H9.113z"
    style="stroke:#000;stroke-width:0;stroke-dasharray:none;stroke-linecap:butt;stroke-dashoffset:0;stroke-linejoin:miter;stroke-miterlimit:4;fill:#fff;fill-rule:nonzero;opacity:1"
    transform="matrix(-4.49 0 0 -5.01 414.29 528.78)" vector-effect="non-scaling-stroke" />
  <g>
    <circle r="40"
      style="stroke:#000;stroke-width:8;stroke-dasharray:none;stroke-linecap:butt;stroke-dashoffset:0;stroke-linejoin:miter;stroke-miterlimit:4;fill:#fff;fill-rule:nonzero;opacity:1"
      transform="matrix(1.25 0 0 1.25 196 196)" />
    <path
      d="M450.46 256.09c-1.11-80.92-50.65-153.38-126.46-182.3-76.41-29.12-166.51-4.79-218.18 58.34C54.4 195 46.61 285.58 88.49 355.68c41.8 69.95 123.74 106 203.55 91.63 91-16.37 156.14-98.12 158.35-189.14a20.16 20.16 0 0 0 .07-2.08Zm-331.41-81.71C152.76 118 220.23 87 285 99.43c69.4 13.29 120.43 70.47 128.83 139h-95.42c-8.26-27.36-32-48-62.62-48-29.65 0-55.15 20.65-63.11 48H97.74a158 158 0 0 1 21.31-64.05Zm167.08 81.72c-2 38.75-60.67 39.4-60.67 0s58.71-38.77 60.67 0Zm24 149.79c-63.28 22.69-135.13 2.85-177.83-49.07a157.53 157.53 0 0 1-34.57-83h94.87c7.91 27.39 33.7 48 63.19 48 30.67 0 54.36-20.68 62.62-48h95.45c-7.25 59.18-46.32 111.5-103.72 132.07Z"
      style="stroke:none;stroke-width:1;stroke-dasharray:none;stroke-linecap:butt;stroke-dashoffset:0;stroke-linejoin:miter;stroke-miterlimit:4;fill:#000;fill-rule:nonzero;opacity:1"
      transform="translate(-61.04 -61.07)" />
  </g>
</svg>